<?xml version="1.0" standalone="no"?>
<!DOCTYPE svg PUBLIC "-//W3C//DTD SVG 20010904//EN"
 "http://www.w3.org/TR/2001/REC-SVG-20010904/DTD/svg10.dtd">
<svg version="1.0" xmlns="http://www.w3.org/2000/svg"
 width="50.000000pt" height="51.000000pt" viewBox="0 0 50.000000 51.000000"
 preserveAspectRatio="xMidYMid meet">

<g transform="translate(0.000000,51.000000) scale(0.100000,-0.100000)"
fill="#000000" stroke="none">
<path d="M78 399 c-10 -5 -18 -19 -18 -29 0 -11 -4 -20 -10 -20 -5 0 -10 -7
-10 -15 0 -8 5 -15 10 -15 6 0 10 -27 10 -60 0 -57 1 -60 25 -60 24 0 25 3 25
53 0 40 5 57 19 69 19 16 21 15 40 -14 l19 -32 -24 -35 -24 -36 27 -3 c18 -3
32 3 41 15 12 17 14 17 23 1 10 -17 59 -26 59 -10 0 4 -9 21 -19 38 -19 31
-19 32 0 63 24 40 24 41 -10 41 -18 0 -31 -6 -36 -17 -6 -17 -7 -17 -16 0 -7
12 -23 17 -57 17 -41 1 -45 2 -29 14 25 19 22 46 -5 46 -13 0 -31 -5 -40 -11z"/>
<path d="M343 350 c-12 -5 -27 -18 -33 -29 -10 -19 -8 -21 19 -21 16 0 33 5
36 10 8 12 25 13 25 1 0 -5 -19 -15 -42 -23 -32 -10 -44 -19 -46 -36 -6 -39
13 -50 86 -50 l67 0 -5 66 c-4 58 -8 68 -30 79 -29 15 -46 15 -77 3z m46 -105
c-9 -9 -19 -11 -29 -5 -12 7 -10 11 10 18 31 12 39 6 19 -13z"/>
<path d="M269 154 c-9 -11 -10 -20 -2 -32 12 -20 54 -23 61 -4 3 9 -3 11 -23
6 -23 -6 -26 -4 -23 12 2 13 10 18 27 16 15 -2 21 0 17 7 -10 16 -42 13 -57
-5z"/>
<path d="M340 135 c0 -34 2 -36 28 -33 23 3 27 8 27 33 -1 25 -5 31 -28 33
-25 3 -27 1 -27 -33z"/>
<path d="M410 155 c0 -7 8 -19 18 -24 16 -10 16 -10 -2 -11 -15 0 -17 -3 -9
-11 15 -15 43 -4 43 15 0 8 -8 17 -17 19 -17 4 -17 5 0 6 24 1 11 21 -14 21
-10 0 -19 -7 -19 -15z"/>
</g>
</svg>
